<svg width="20" height="20" viewBox="0 0 20 20" fill="none" xmlns="http://www.w3.org/2000/svg">
<g clip-path="url(#clip0_864_2)">
<path d="M19.7465 2.97C19.5481 2.751 19.2623 2.625 18.961 2.625H4.60364L4.40104 1.461C4.31792 0.979 3.88468 0.625 3.37662 0.625H1.03896C0.464416 0.625 0 1.072 0 1.625C0 2.178 0.464416 2.625 1.03896 2.625H2.49662L4.42909 13.789C4.4374 13.834 4.4613 13.871 4.47584 13.913C4.49247 13.966 4.50597 14.016 4.53195 14.064C4.56519 14.13 4.60987 14.186 4.65662 14.243C4.68883 14.282 4.71792 14.321 4.75532 14.355C4.81558 14.409 4.88519 14.447 4.95584 14.485C4.99532 14.506 5.02961 14.534 5.07221 14.55C5.19273 14.597 5.31948 14.625 5.45351 14.625H16.8831C17.4577 14.625 17.9221 14.178 17.9221 13.625C17.9221 13.072 17.4577 12.625 16.8831 12.625H6.33455L6.16208 11.625H17.9221C18.4395 11.625 18.8779 11.259 18.9506 10.767L19.9896 3.767C20.0322 3.479 19.9429 3.188 19.7465 2.97ZM17.7631 4.625L17.467 6.625H13.7662V4.625H17.7631ZM12.7273 4.625V6.625H9.61039V4.625H12.7273ZM12.7273 7.625V9.625H9.61039V7.625H12.7273ZM8.57143 4.625V6.625H5.45455C5.39948 6.625 5.34961 6.64 5.30078 6.655L4.94961 4.625H8.57143ZM5.46909 7.625H8.57143V9.625H5.81507L5.46909 7.625ZM13.7662 9.625V7.625H17.3174L17.0213 9.625H13.7662Z" fill="#436372"/>
<path d="M7.01303 18.625C7.87373 18.625 8.57147 17.9534 8.57147 17.125C8.57147 16.2966 7.87373 15.625 7.01303 15.625C6.15233 15.625 5.45459 16.2966 5.45459 17.125C5.45459 17.9534 6.15233 18.625 7.01303 18.625Z" fill="#436372"/>
<path d="M16.3636 18.625C17.2243 18.625 17.9221 17.9534 17.9221 17.125C17.9221 16.2966 17.2243 15.625 16.3636 15.625C15.5029 15.625 14.8052 16.2966 14.8052 17.125C14.8052 17.9534 15.5029 18.625 16.3636 18.625Z" fill="#436372"/>
</g>
<defs>
<clipPath id="clip0_864_2">
<rect width="20" height="19.25" fill="white"/>
</clipPath>
</defs>
</svg>
