<svg width="20" height="20" viewBox="0 0 20 20" fill="none" xmlns="http://www.w3.org/2000/svg">
<path d="M20 6.99523C20 3.82223 17.4277 1.25 14.2548 1.25C12.568 1.25 11.0511 1.97691 10 3.13457C8.94895 1.97691 7.43199 1.25 5.74523 1.25C2.57223 1.25 0 3.82223 0 6.99523C0 8.68199 0.726914 10.1989 1.88457 11.25H1.875L8.125 17.5C8.75 18.125 9.375 18.75 10 18.75C10.625 18.75 11.25 18.125 11.875 17.5L18.125 11.25H18.1155C19.2731 10.1989 20 8.68199 20 6.99523ZM16.4349 9.39906L10.1072 15.7322C10.0745 15.765 10.0382 15.8012 10 15.8392C9.96172 15.8011 9.92551 15.765 9.89277 15.7322L3.56508 9.3991C2.87824 8.77551 2.5 7.9218 2.5 6.99523C2.5 5.20582 3.95582 3.75 5.74523 3.75C6.6718 3.75 7.52551 4.12824 8.14906 4.81508L10 6.85375L11.851 4.81512C12.4745 4.12824 13.3282 3.75 14.2548 3.75C16.0441 3.75 17.5 5.20582 17.5 6.99523C17.5 7.9218 17.1217 8.77551 16.4349 9.39906Z" fill="#436372"/>
</svg>
