<?xml version="1.0" encoding="utf-8"?><svg viewBox="0 0 20 20" xmlns="http://www.w3.org/2000/svg" xmlns:xlink="http://www.w3.org/1999/xlink"><style>:root>svg{display:none}:root>svg:target{display:block}</style><svg viewBox="0 0 20 20" id="cart" xmlns="http://www.w3.org/2000/svg"><g clip-path="url(#aclip0_864_2)"><path d="M19.747 2.97a1.06 1.06 0 00-.786-.345H4.604L4.4 1.461A1.028 1.028 0 003.377.625H1.039C.464.625 0 1.072 0 1.625c0 .553.464 1 1.039 1h1.458l1.932 11.164c.008.045.032.082.047.124.016.053.03.103.056.151a.98.98 0 00.125.179c.032.039.06.078.098.112.06.054.13.092.2.13.04.021.075.049.117.065.12.047.247.075.382.075h11.43c.574 0 1.038-.447 1.038-1 0-.553-.464-1-1.039-1H6.335l-.173-1h11.76c.517 0 .956-.366 1.029-.858l1.039-7a.976.976 0 00-.243-.797zm-1.984 1.655l-.296 2h-3.7v-2h3.996zm-5.036 0v2H9.61v-2h3.117zm0 3v2H9.61v-2h3.117zm-4.156-3v2H5.455a.517.517 0 00-.154.03l-.351-2.03H8.57zm-3.102 3h3.102v2H5.815l-.346-2zm8.297 2v-2h3.551l-.296 2h-3.255zM7.013 18.625c.86 0 1.558-.672 1.558-1.5s-.697-1.5-1.558-1.5c-.86 0-1.558.672-1.558 1.5s.697 1.5 1.558 1.5zM16.364 18.625c.86 0 1.558-.672 1.558-1.5s-.698-1.5-1.558-1.5c-.861 0-1.559.672-1.559 1.5s.698 1.5 1.559 1.5z"/></g><defs><clipPath id="aclip0_864_2"><path d="M0 0h20v19.25H0z"/></clipPath></defs></svg><svg viewBox="0 0 20 20" id="like" xmlns="http://www.w3.org/2000/svg"><path d="M20 6.995a5.745 5.745 0 00-10-3.86 5.745 5.745 0 10-8.115 8.115h-.01l6.25 6.25c.625.625 1.25 1.25 1.875 1.25s1.25-.625 1.875-1.25l6.25-6.25h-.01A5.73 5.73 0 0020 6.995zM16.435 9.4l-6.328 6.333-.107.107a47.302 47.302 0 01-.107-.107L3.565 9.4A3.21 3.21 0 012.5 6.995 3.249 3.249 0 015.745 3.75c.927 0 1.78.378 2.404 1.065L10 6.854l1.851-2.039a3.21 3.21 0 012.404-1.065A3.249 3.249 0 0117.5 6.995 3.21 3.21 0 0116.435 9.4z"/></svg><svg viewBox="0 0 20 20" id="other" xmlns="http://www.w3.org/2000/svg"><g clip-path="url(#cclip0_864_60)"><path fill-rule="evenodd" clip-rule="evenodd" d="M2.147 4.28a2.143 2.143 0 11-.012-4.285 2.143 2.143 0 01.012 4.285zm0 7.857a2.144 2.144 0 11-.012-4.287 2.144 2.144 0 01.012 4.287zm0 7.856a2.143 2.143 0 11-.012-4.286 2.143 2.143 0 01.012 4.286zM9.995 4.28a2.143 2.143 0 11.008-4.285 2.143 2.143 0 01-.008 4.285zm0 7.857a2.143 2.143 0 11.008-4.285 2.143 2.143 0 01-.008 4.285zm0 7.856a2.143 2.143 0 11.008-4.286 2.143 2.143 0 01-.008 4.286zM17.853 4.28a2.143 2.143 0 11.008-4.285 2.143 2.143 0 01-.008 4.285zm0 7.857a2.143 2.143 0 11.008-4.286 2.143 2.143 0 01-.008 4.286zm0 7.856a2.143 2.143 0 11.008-4.287 2.143 2.143 0 01-.008 4.287z"/></g><defs><clipPath id="cclip0_864_60"><path d="M0 0h20v20H0z"/></clipPath></defs></svg><svg viewBox="0 0 20 20" id="search" xmlns="http://www.w3.org/2000/svg"><g clip-path="url(#dclip0_864_42)"><path d="M19.38 17.02l-4.737-4.03c-.49-.44-1.014-.643-1.437-.623a7.5 7.5 0 10-.84.84c-.019.422.184.946.624 1.436l4.03 4.737c.69.767 1.816.831 2.504.144.687-.688.623-1.815-.144-2.505zM7.5 12.5a5 5 0 110-10 5 5 0 010 10z"/></g><defs><clipPath id="dclip0_864_42"><path d="M0 0h20v20H0z"/></clipPath></defs></svg></svg>