<svg width="20" height="20" viewBox="0 0 20 20" fill="none" xmlns="http://www.w3.org/2000/svg">
<g clip-path="url(#clip0_864_60)">
<path fill-rule="evenodd" clip-rule="evenodd" d="M2.14677 4.28035C1.72267 4.28153 1.30777 4.15685 0.954584 3.92209C0.601396 3.68733 0.325754 3.35304 0.162681 2.96157C-0.000390657 2.57009 -0.0436049 2.13903 0.0384781 1.72297C0.120561 1.30691 0.324248 0.924565 0.623782 0.624346C0.923316 0.324127 1.30525 0.119539 1.72113 0.0364894C2.13702 -0.0465603 2.56825 -0.00433525 2.96012 0.157815C3.352 0.319965 3.68682 0.594748 3.92242 0.94737C4.15802 1.29999 4.28377 1.71459 4.28358 2.13867C4.28358 2.70581 4.05851 3.2498 3.65793 3.6513C3.25734 4.0528 2.71394 4.27902 2.14677 4.28035ZM2.14677 12.1372C1.72275 12.1384 1.30785 12.0137 0.954706 11.7791C0.601562 11.5444 0.326056 11.2102 0.162925 10.8188C-0.000205371 10.4275 -0.0435649 9.99653 0.0383563 9.58053C0.120277 9.16452 0.323716 8.78217 0.62305 8.48187C0.922385 8.18157 1.30416 7.97683 1.71992 7.89356C2.13567 7.81028 2.56675 7.85222 2.95866 8.01406C3.35057 8.1759 3.68561 8.45038 3.92145 8.80274C4.15729 9.1551 4.28338 9.5695 4.28358 9.99349C4.28384 10.5609 4.059 11.1053 3.65841 11.5071C3.25783 11.909 2.7142 12.1356 2.14677 12.1372ZM2.14677 19.993C1.72271 19.9942 1.30787 19.8695 0.954706 19.6348C0.60154 19.4001 0.325905 19.0659 0.162803 18.6744C-0.000298052 18.283 -0.0436458 17.852 0.0383563 17.436C0.120358 17.02 0.323982 16.6376 0.623416 16.3373C0.92285 16.0371 1.3047 15.8324 1.72053 15.7493C2.13635 15.6661 2.5675 15.7082 2.95939 15.8702C3.35128 16.0322 3.68622 16.3068 3.92193 16.6593C4.15765 17.0118 4.28357 17.4263 4.28358 17.8503C4.28384 18.4176 4.0589 18.9619 3.65829 19.3636C3.25768 19.7653 2.71411 19.9917 2.14677 19.993ZM9.99498 4.28035C9.5713 4.27956 9.15735 4.1532 8.80548 3.91723C8.4536 3.68127 8.17963 3.34629 8.01809 2.95464C7.85654 2.56299 7.81469 2.13225 7.8979 1.71685C7.98112 1.30144 8.18559 0.920031 8.48552 0.620812C8.78546 0.321592 9.16738 0.117994 9.583 0.0357543C9.99861 -0.0464855 10.4292 -0.00367712 10.8205 0.158767C11.2118 0.321211 11.5462 0.596 11.7814 0.948406C12.0165 1.30081 12.142 1.71502 12.1418 2.13867C12.142 2.42041 12.0867 2.69944 11.9788 2.95972C11.871 3.22001 11.7127 3.45643 11.5132 3.65542C11.3137 3.85441 11.077 4.01205 10.8165 4.1193C10.556 4.22654 10.2767 4.28127 9.99498 4.28035ZM9.99498 12.1372C9.57139 12.1364 9.15755 12.0101 8.80572 11.7742C8.45389 11.5383 8.17981 11.2035 8.01821 10.8119C7.85661 10.4204 7.81473 9.98975 7.89778 9.5744C7.98083 9.15905 8.18506 8.77764 8.48479 8.47834C8.78453 8.17904 9.1663 7.97529 9.58178 7.89282C9.99726 7.81035 10.4279 7.85288 10.8192 8.01501C11.2105 8.17715 11.545 8.45163 11.7804 8.80378C12.0158 9.15592 12.1416 9.56992 12.1418 9.99349C12.1422 10.2754 12.0868 10.5545 11.9791 10.815C11.8713 11.0755 11.7132 11.3121 11.5137 11.5112C11.3142 11.7104 11.0774 11.8682 10.8167 11.9757C10.5561 12.0831 10.2769 12.138 9.99498 12.1372ZM9.99498 19.993C9.57135 19.9922 9.15745 19.8659 8.8056 19.63C8.45375 19.394 8.17966 19.0591 8.01809 18.6675C7.85652 18.2759 7.81465 17.8452 7.89778 17.4299C7.98091 17.0145 8.18533 16.6331 8.48516 16.3338C8.78499 16.0345 9.16684 15.8309 9.58239 15.7485C9.99794 15.6662 10.4286 15.7088 10.8199 15.8711C11.2112 16.0334 11.5456 16.3081 11.7809 16.6603C12.0161 17.0126 12.1418 17.4267 12.1418 17.8503C12.1422 18.1321 12.0869 18.4113 11.9791 18.6717C11.8713 18.9321 11.7131 19.1686 11.5136 19.3677C11.3141 19.5668 11.0772 19.7245 10.8166 19.8318C10.556 19.9392 10.2768 19.9939 9.99498 19.993ZM17.8532 4.28035C17.4295 4.27956 17.0156 4.1532 16.6637 3.91723C16.3118 3.68127 16.0378 3.34629 15.8763 2.95464C15.7148 2.56299 15.6729 2.13225 15.7561 1.71685C15.8393 1.30144 16.0438 0.920031 16.3437 0.620812C16.6437 0.321592 17.0256 0.117994 17.4412 0.0357543C17.8568 -0.0464855 18.2876 -0.00367712 18.6789 0.158767C19.0701 0.321211 19.4044 0.596 19.6396 0.948406C19.8747 1.30081 20.0002 1.71502 20 2.13867C20.0003 2.42041 19.9449 2.69944 19.837 2.95972C19.7292 3.22001 19.5709 3.45643 19.3714 3.65542C19.172 3.85441 18.9353 4.01205 18.6747 4.1193C18.4142 4.22654 18.1349 4.28127 17.8532 4.28035ZM17.8532 12.1372C17.4296 12.1364 17.0158 12.0101 16.6639 11.7742C16.3121 11.5383 16.038 11.2035 15.8764 10.8119C15.7148 10.4204 15.6729 9.98975 15.756 9.5744C15.839 9.15905 16.0433 8.77764 16.343 8.47834C16.6427 8.17904 17.0245 7.97529 17.44 7.89282C17.8555 7.81035 18.2861 7.85288 18.6774 8.01501C19.0687 8.17715 19.4032 8.45163 19.6386 8.80378C19.874 9.15592 19.9998 9.56992 20 9.99349C20.0004 10.2754 19.9451 10.5545 19.8373 10.815C19.7295 11.0755 19.5714 11.3121 19.3719 11.5112C19.1724 11.7104 18.9356 11.8682 18.675 11.9757C18.4143 12.0831 18.1351 12.138 17.8532 12.1372ZM17.8532 19.993C17.4296 19.9922 17.0157 19.8659 16.6638 19.63C16.312 19.394 16.038 19.0591 15.8764 18.6675C15.7148 18.2759 15.6729 17.8452 15.756 17.4299C15.8391 17.0145 16.0435 16.6331 16.3434 16.3338C16.6432 16.0345 17.025 15.8309 17.4406 15.7485C17.8561 15.6662 18.2868 15.7088 18.6781 15.8711C19.0694 16.0334 19.4038 16.3081 19.6391 16.6603C19.8744 17.0126 20 17.4267 20 17.8503C20.0004 18.1321 19.9451 18.4113 19.8373 18.6717C19.7295 18.9321 19.5713 19.1686 19.3718 19.3677C19.1723 19.5668 18.9354 19.7245 18.6748 19.8318C18.4142 19.9392 18.135 19.9939 17.8532 19.993Z" fill="white"/>
</g>
<defs>
<clipPath id="clip0_864_60">
<rect width="20" height="20" fill="white"/>
</clipPath>
</defs>
</svg>
