<svg width="20" height="20" viewBox="0 0 20 20" fill="none" xmlns="http://www.w3.org/2000/svg">
<g clip-path="url(#clip0_864_42)">
<path d="M19.3802 17.0195L14.6428 12.9903C14.1531 12.5496 13.6293 12.3472 13.2062 12.3667C14.3245 11.0569 15 9.3574 15 7.50001C15 3.35786 11.6422 0 7.50002 0C3.3579 0 0 3.35786 0 7.50001C0 11.6422 3.35786 15 7.50002 15C9.3574 15 11.0569 14.3245 12.3667 13.2062C12.3472 13.6293 12.5496 14.153 12.9903 14.6427L17.0194 19.3801C17.7094 20.1466 18.8363 20.2113 19.5237 19.5238C20.2112 18.8363 20.1467 17.7094 19.3802 17.0195ZM7.50002 12.5C4.7386 12.5 2.50001 10.2614 2.50001 7.50001C2.50001 4.7386 4.7386 2.5 7.50002 2.5C10.2614 2.5 12.5 4.7386 12.5 7.50001C12.5 10.2614 10.2615 12.5 7.50002 12.5Z" fill="#436372"/>
</g>
<defs>
<clipPath id="clip0_864_42">
<rect width="20" height="20" fill="white"/>
</clipPath>
</defs>
</svg>
